# xmcd
#
# Track frame offsets:
#	150
#	11666
#	24466
#	36148
#	49159
#	55636
#	68823
#	74316
#	91076
#	102001
#	112501
#	120615
#	134627
#	139801
#	147459
#	157107
#	170801
#	181884
#	192476
#	199445
#	211883
#	225188
#	238522
#	251598
#	264719
#	277020
#	290055
#	303470
#	316034
#
# Disc length: 4378 seconds
#
# Revision: 0
# Processed by: cddbd v1.5.1PL0 Copyright (c) Steve Scherf et al.
# Submitted via: dBpowerAMP V4.0
#
DISCID=ab11181d
DTITLE=Leadbelly - Complete Recorded Works  vol 4 1939-47
DYEAR=1900
DGENRE=blues
TTITLE0=In the Evenin' When the Sun Goes Down
TTITLE1=Easy Rider (See See Rider)
TTITLE2=We Shall Be Free
TTITLE3=Keep Your HAnds Off Her
TTITLE4=There's A Man Going Round Taking Names
TTITLE5=Red Bird
TTITLE6=Line 'Em
TTITLE7=T.B. Blues
TTITLE8=Jim Crow Blues
TTITLE9=Bourgeouis Blues
TTITLE10=Army Life
TTITLE11=Mr. Hitler (Hitler Song)
TTITLE12=Juliana Johnson
TTITLE13=Jean Harlow
TTITLE14=Corn Bread Rough
TTITLE15=National Defense Blues
TTITLE16=Children's Blues (Little Children's Blues)
TTITLE17=The Blood Done Sign My Name (Ain't You Glad)
TTITLE18=Cow Cow Yicky Yicky Yea
TTITLE19=Ella Speed 
TTITLE20=Rock Island Line
TTITLE21=Tell Me Baby
TTITLE22=Take This Hammer
TTITLE23=Irene (Goodnight Irene)
TTITLE24=Western Plain
TTITLE25=On a Christmas Day
TTITLE26=Backwater Blues
TTITLE27=Eagle Rock Rag (Hot Piano Rag)
TTITLE28=The Eagle Rocks
EXTD=
EXTT0=
EXTT1=
EXTT2=
EXTT3=
EXTT4=
EXTT5=
EXTT6=
EXTT7=
EXTT8=
EXTT9=
EXTT10=
EXTT11=
EXTT12=
EXTT13=
EXTT14=
EXTT15=
EXTT16=
EXTT17=
EXTT18=
EXTT19=
EXTT20=
EXTT21=
EXTT22=
EXTT23=
EXTT24=
EXTT25=
EXTT26=
EXTT27=
EXTT28=
PLAYORDER=
